/* XPM */
static char *d049d769b4654af4f80793b7145542ce1ULZja1N79nTzvG9[] = {
/* columns rows colors chars-per-pixel */
"64 64 12 1 ",
"  c None",
". c black",
"X c #384050",
"o c #784040",
"O c #C03838",
"+ c #F06848",
"@ c #386088",
"# c #C06898",
"$ c #F8D0B8",
"% c #A8A0C8",
"& c #C8C8D8",
"* c #E8E8F8",
/* pixels */
"                                                                ",
"                                                                ",
"                                                                ",
"                                                                ",
"                                                                ",
"                                                                ",
"                                                                ",
"                                                                ",
"                                                                ",
"                                                                ",
"                                                                ",
"                                                                ",
"                                                                ",
"                                                                ",
"                           @@@@@@@@@@                           ",
"                           @@@@@@@@@@                           ",
"                     @@@@%%**********%%@@@@                     ",
"                     @@@@%%**********%%@@@@                     ",
"                   @@@@******************%%@@                   ",
"                   @@@@******************%%@@                   ",
"                   ..**********************..                   ",
"                   ..**********************..                   ",
"                 ..&&**********************&&..                 ",
"                 ..&&**********************&&..                 ",
"                 XX&&**********************&&XX                 ",
"                 XX&&**********************&&XX                 ",
"               ..XX&&&&******************&&&&XX..               ",
"               ..XX&&&&******************&&&&XX..               ",
"               ..XX%%&&******************&&%%XX..               ",
"               ..XX%%&&******************&&%%XX..               ",
"               ..XX%%&&&&&&**********&&&&&&%%XX..               ",
"               ..XX%%&&&&&&**********&&&&&&%%XX..               ",
"               ..XX..&&&&&&**********&&&&&&XXXX..               ",
"               ..XX..&&&&&&**********&&&&&&XXXX..               ",
"               ..@@XX%%**&&%%******%%&&**%%XX@@..               ",
"               ..@@XX%%**&&%%******%%&&**%%XX@@..               ",
"               ....@@@@XX%%%%******%%%%XX@@@@....               ",
"               ....@@@@XX%%%%******%%%%XX@@@@....               ",
"               ..XX....@@@@XX%%**%%XX@@@@....XX..               ",
"               ..XX....@@@@XX%%**%%XX@@@@....XX..               ",
"               ....XXXX......@@@@@@......XXXX....               ",
"               ....XXXX......@@@@@@......XXXX....               ",
"                 ..XXXXXXXX..@@@@@@..XXXXXXXX..                 ",
"                 ..XXXXXXXX..@@@@@@..XXXXXXXX..                 ",
"                   ..XX..XX..@@@@@@..XX..XX..                   ",
"                   ..XX..XX..@@@@@@..XX..XX..                   ",
"                 ..&&........XX@@XX........oo..                 ",
"                 ..&&........XX@@XX........oo..                 ",
"               oo$$&&OO..OO..XX..XX..%%****OO$$..               ",
"               oo$$&&OO..OO..XX..XX..%%****OO$$..               ",
"               ..$$$$..OOOOOO......OO%%****..$$..               ",
"               ..$$$$..OOOOOO......OO%%****..$$..               ",
"                 ......OO++OOOOOOOOOO++%%%%....                 ",
"                 ......OO++OOOOOOOOOO++%%%%....                 ",
"                     ......++++++++++......                     ",
"                     ......++++++++++......                     ",
"                     ..####..........####..                     ",
"                     ..####..........####..                     ",
"                       ....          ....                       ",
"                       ....          ....                       ",
"                                                                ",
"                                                                ",
"                                                                ",
"                                                                "
};
