/* XPM */
static char *b7a20dc9810f42c5f834e2e5ac816d10JWl5nRsc53dZbR5H[] = {
/* columns rows colors chars-per-pixel */
"64 64 14 1 ",
"  c None",
". c black",
"X c #384050",
"o c #784040",
"O c #C03838",
"+ c #F06848",
"@ c #D8A078",
"# c #386088",
"$ c #C06898",
"% c #F8D0B8",
"& c #A8A0C8",
"* c #E890C0",
"= c #C8C8D8",
"- c #E8E8F8",
/* pixels */
"                                                                ",
"                                                                ",
"                                                                ",
"                                                                ",
"                                                                ",
"                                                                ",
"                                                                ",
"                                                                ",
"                                                                ",
"                                                                ",
"                                                                ",
"                                                                ",
"                 ####&&&&&&&&                                   ",
"                 ####&&&&&&&&                                   ",
"               ##------------&&&&&&&&                           ",
"               ##------------&&&&&&&&                           ",
"               ##--------------------##&&                       ",
"               ##--------------------##&&                       ",
"                 ##--------------------==##                     ",
"                 ##--------------------==##                     ",
"                   &&----------------------##                   ",
"                   &&----------------------##                   ",
"                 ##&&==--------------------##                   ",
"                 ##&&==--------------------##                   ",
"                 ##====--------------------==##                 ",
"                 ##====--------------------==##                 ",
"                 ##&&====----------------====##                 ",
"                 ##&&====----------------====##                 ",
"                 ##&&========--------======**##                 ",
"                 ##&&========--------======**##                 ",
"                 ##==&&==================$$&&##                 ",
"                 ##==&&==================$$&&##                 ",
"               ..XX====&&&&&&&&&&&&&&&&&&&&==..                 ",
"               ..XX====&&&&&&&&&&&&&&&&&&&&==..                 ",
"               ..XX..========----==--======oo..                 ",
"               ..XX..========----==--======oo..                 ",
"               ..XX..##XXXXXXXX##**$$--##@@oo                   ",
"               ..XX..##XXXXXXXX##**$$--##@@oo                   ",
"             ..XXXX....########@@##XX--..%%oo                   ",
"             ..XXXX....########@@##XX--..%%oo                   ",
"             ..XXXX..XX......@@@@##XX%%%%%%@@                   ",
"             ..XXXX..XX......@@@@##XX%%%%%%@@                   ",
"             ..####..XXXXXX..oo@@##XX@@%%oo                     ",
"             ..####..XXXXXX..oo@@##XX@@%%oo                     ",
"               ......XX..XX........oooooo                       ",
"               ......XX..XX........oooooo                       ",
"                     ......  ..======XX                         ",
"                     ......  ..======XX                         ",
"                         ....&&ooOOoo--&&                       ",
"                         ....&&ooOOoo--&&                       ",
"                       ..oo----oo==%%oo&&                       ",
"                       ..oo----oo==%%oo&&                       ",
"                       ..++----oo%%%%oooo                       ",
"                       ..++----oo%%%%oooo                       ",
"                         ..&&&&&&oooo&&..                       ",
"                         ..&&&&&&oooo&&..                       ",
"                           ..XX$$$$$$ooXX                       ",
"                           ..XX$$$$$$ooXX                       ",
"                               ......                           ",
"                               ......                           ",
"                                                                ",
"                                                                ",
"                                                                ",
"                                                                "
};
