/* XPM */
static char *_cfb0604b32c4973e1515ced50c787f1KffC5fXFxjZTSCfH[] = {
/* columns rows colors chars-per-pixel */
"64 64 13 1 ",
"  c None",
". c black",
"X c #384050",
"o c #784040",
"O c #C03838",
"+ c #F06848",
"@ c #D8A078",
"# c #386088",
"$ c #C06898",
"% c #F8D0B8",
"& c #A8A0C8",
"* c #C8C8D8",
"= c #E8E8F8",
/* pixels */
"                                                                ",
"                                                                ",
"                                                                ",
"                                                                ",
"                                                                ",
"                                                                ",
"                                                                ",
"                                                                ",
"                                                                ",
"                                                                ",
"                                                                ",
"                                                                ",
"                           ##########                           ",
"                           ##########                           ",
"                     ####&&==========&&####                     ",
"                     ####&&==========&&####                     ",
"                   ##&&==================####                   ",
"                   ##&&==================####                   ",
"                   ..======================..                   ",
"                   ..======================..                   ",
"                 ..**======================**..                 ",
"                 ..**======================**..                 ",
"                 XX**======================**XX                 ",
"                 XX**======================**XX                 ",
"               ..XX****==================****XX..               ",
"               ..XX****==================****XX..               ",
"               ..XX&&**==================**&&XX..               ",
"               ..XX&&**==================**&&XX..               ",
"               ..XX&&**&&============******&&XX..               ",
"               ..XX&&**&&============******&&XX..               ",
"               ..XXXX**&&============******..XX..               ",
"               ..XXXX**&&============******..XX..               ",
"             ..XX##XX&&&&==========&&**==&&XX##..               ",
"             ..XX##XX&&&&==========&&**==&&XX##..               ",
"             ..XX..####&&======**&&**&&XX####....               ",
"             ..XX..####&&======**&&**&&XX####....               ",
"             ....XX....##&&&&&&........##....XX                 ",
"             ....XX....##&&&&&&........##....XX                 ",
"               ..XXXXXX..XX..######......XXXX..                 ",
"               ..XXXXXX..XX..######......XXXX..                 ",
"                 ..XXXXXX..########..XXXXXXXX..                 ",
"                 ..XXXXXX..########..XXXXXXXX..                 ",
"                 ..XXXX..XX######..XXXX..XX..                   ",
"                 ..XXXX..XX######..XXXX..XX..                   ",
"                   ......XXXX##XX..XX........                   ",
"                   ......XXXX##XX..XX........                   ",
"                   ..OO....XXXX......**ooOOOO..                 ",
"                   ..OO....XXXX......**ooOOOO..                 ",
"                     ..ooXX....OOOO&&====oo%%..                 ",
"                     ..ooXX....OOOO&&====oo%%..                 ",
"                     ..oo++OOOOOOOOOO&&&&oo%%..                 ",
"                     ..oo++OOOOOOOOOO&&&&oo%%..                 ",
"                     ....oo++++++++++........                   ",
"                     ....oo++++++++++........                   ",
"                     ..@@@@........oooo                         ",
"                     ..@@@@........oooo                         ",
"                       oo$$$$..                                 ",
"                       oo$$$$..                                 ",
"                       ..$$$$..                                 ",
"                       ..$$$$..                                 ",
"                         ....                                   ",
"                         ....                                   ",
"                                                                ",
"                                                                "
};
