/* XPM */
static char *_57190414faf4deeec90afd2639a2dd8HWTdGYVKUr5SUEbV[] = {
/* columns rows colors chars-per-pixel */
"64 64 14 1 ",
"  c None",
". c black",
"X c #384050",
"o c #784040",
"O c #C03838",
"+ c #F06848",
"@ c #D8A078",
"# c #386088",
"$ c #C06898",
"% c #F8D0B8",
"& c #A8A0C8",
"* c #E890C0",
"= c #C8C8D8",
"- c #E8E8F8",
/* pixels */
"                                                                ",
"                                                                ",
"                                                                ",
"                                                                ",
"                                                                ",
"                                                                ",
"                                                                ",
"                                                                ",
"                                                                ",
"                                                                ",
"                                                                ",
"                                                                ",
"                     &&&&&&&&&&&&&&&&                           ",
"                     &&&&&&&&&&&&&&&&                           ",
"                 ####----------------##&&                       ",
"                 ####----------------##&&                       ",
"               ##----------------------==##                     ",
"               ##----------------------==##                     ",
"               ##--------------------------##                   ",
"               ##--------------------------##                   ",
"                 ##--==--------------------##                   ",
"                 ##--==--------------------##                   ",
"                 ####==--------------------==##                 ",
"                 ####==--------------------==##                 ",
"                 ##&&====----------------====##                 ",
"                 ##&&====----------------====##                 ",
"                 ##&&========--------======**##                 ",
"                 ##&&========--------======**##                 ",
"                 ##==&&==================$$&&##                 ",
"                 ##==&&==================$$&&##                 ",
"               ..XX====&&&&&&&&&&&&&&&&&&&&==..                 ",
"               ..XX====&&&&&&&&&&&&&&&&&&&&==..                 ",
"             ..XXXX..========----==--======oo..                 ",
"             ..XXXX..========----==--======oo..                 ",
"             ..XXXX..##XXXXXXXX##**$$--##@@oo                   ",
"             ..XXXX..##XXXXXXXX##**$$--##@@oo                   ",
"           ..XXXXXX....########XXXX@@--..%%oo                   ",
"           ..XXXXXX....########XXXX@@--..%%oo                   ",
"           ..XXXX..XXXX......@@##XX@@%%%%%%@@                   ",
"           ..XXXX..XXXX......@@##XX@@%%%%%%@@                   ",
"           ..####..XXXXXXXX..ooXXXX@@@@%%oo                     ",
"           ..####..XXXXXXXX..ooXXXX@@@@%%oo                     ",
"             ....  ..XX..XX........oooooo                       ",
"             ....  ..XX..XX........oooooo                       ",
"                     ......  ..======oo                         ",
"                     ......  ..======oo                         ",
"                         ..oo..&&ooOOoo==                       ",
"                         ..oo..&&ooOOoo==                       ",
"                       ..oo##----oo==%%oo                       ",
"                       ..oo##----oo==%%oo                       ",
"                       ..++##----oo%%%%oo..                     ",
"                       ..++##----oo%%%%oo..                     ",
"                       ....##&&&&&&oooo&&oo..                   ",
"                       ....##&&&&&&oooo&&oo..                   ",
"                     ..$$%%%%..........oooo..                   ",
"                     ..$$%%%%..........oooo..                   ",
"                     ..$$$$..          ....                     ",
"                     ..$$$$..          ....                     ",
"                       ....                                     ",
"                       ....                                     ",
"                                                                ",
"                                                                ",
"                                                                ",
"                                                                "
};
