/* XPM */
static char *_12ce96ca8cd454cc817a5564171d8aeXyNLuTt2GHucXPfa[] = {
/* columns rows colors chars-per-pixel */
"64 64 13 1 ",
"  c None",
". c black",
"X c #384050",
"o c #784040",
"O c #C03838",
"+ c #F06848",
"@ c #D8A078",
"# c #386088",
"$ c #C06898",
"% c #F8D0B8",
"& c #A8A0C8",
"* c #C8C8D8",
"= c #E8E8F8",
/* pixels */
"                                                                ",
"                                                                ",
"                                                                ",
"                                                                ",
"                                                                ",
"                                                                ",
"                                                                ",
"                                                                ",
"                                                                ",
"                                                                ",
"                                                                ",
"                                                                ",
"                           ##########                           ",
"                           ##########                           ",
"                     ####&&==========&&####                     ",
"                     ####&&==========&&####                     ",
"                   ####==================&&##                   ",
"                   ####==================&&##                   ",
"                   ..======================..                   ",
"                   ..======================..                   ",
"                 ..**======================**..                 ",
"                 ..**======================**..                 ",
"                 XX**======================**XX                 ",
"                 XX**======================**XX                 ",
"               ..XX****==================****XX..               ",
"               ..XX****==================****XX..               ",
"               ..XX&&**==================**&&XX..               ",
"               ..XX&&**==================**&&XX..               ",
"               ..XX&&******============&&**&&XX..               ",
"               ..XX&&******============&&**&&XX..               ",
"               ..XX..******============&&**XXXX..               ",
"               ..XX..******============&&**XXXX..               ",
"               ..##XX&&==**&&==========&&&&XX##XX..             ",
"               ..##XX&&==**&&==========&&&&XX##XX..             ",
"               ....####XX&&**&&**======&&####..XX..             ",
"               ....####XX&&**&&**======&&####..XX..             ",
"                 XX....##........&&&&&&##....XX....             ",
"                 XX....##........&&&&&&##....XX....             ",
"                 ..XXXX......######..XX..XXXXXX..               ",
"                 ..XXXX......######..XX..XXXXXX..               ",
"                 ..XXXXXXXX..########..XXXXXX..                 ",
"                 ..XXXXXXXX..########..XXXXXX..                 ",
"                   ..XX..XXXX..######XX..XXXX..                 ",
"                   ..XX..XXXX..######XX..XXXX..                 ",
"                   oo..........XX##XXXX......@@..               ",
"                   oo..........XX##XXXX......@@..               ",
"                   ..**&&XXooOO..XXXX....====@@..               ",
"                   ..**&&XXooOO..XXXX....====@@..               ",
"                 ..%%%%....OOOOOO....XXOO====..                 ",
"                 ..%%%%....OOOOOO....XXOO====..                 ",
"                 ..%%%%oo++OOOOOOOOOO++++&&&&                   ",
"                 ..%%%%oo++OOOOOOOOOO++++&&&&                   ",
"                   ........++++++++++oo....                     ",
"                   ........++++++++++oo....                     ",
"                         oooo........@@%%..                     ",
"                         oooo........@@%%..                     ",
"                                 ..$$$$oo                       ",
"                                 ..$$$$oo                       ",
"                                 ..$$$$..                       ",
"                                 ..$$$$..                       ",
"                                   ....                         ",
"                                   ....                         ",
"                                                                ",
"                                                                "
};
