/* XPM */
static char *_56a33954c6548b8bcb8190b43cc47944OlZzd7OcvmZQBwl[] = {
/* columns rows colors chars-per-pixel */
"64 64 14 1 ",
"  c None",
". c black",
"X c #384050",
"o c #784040",
"O c #C03838",
"+ c #F06848",
"@ c #D8A078",
"# c #386088",
"$ c #C06898",
"% c #F8D0B8",
"& c #A8A0C8",
"* c #E890C0",
"= c #C8C8D8",
"- c #E8E8F8",
/* pixels */
"                                                                ",
"                                                                ",
"                                                                ",
"                                                                ",
"                                                                ",
"                                                                ",
"                                                                ",
"                                                                ",
"                                                                ",
"                                                                ",
"                   ##&&&&&&&&                                   ",
"                   ##&&&&&&&&                                   ",
"                 ##----------==&&&&&&                           ",
"                 ##----------==&&&&&&                           ",
"                 ##------------------##&&                       ",
"                 ##------------------##&&                       ",
"                   ##------------------==##                     ",
"                   ##------------------==##                     ",
"                   &&----------------------##                   ",
"                   &&----------------------##                   ",
"                 ##&&==--------------------##                   ",
"                 ##&&==--------------------##                   ",
"                 ##====--------------------==##                 ",
"                 ##====--------------------==##                 ",
"                 ##&&====----------------====##                 ",
"                 ##&&====----------------====##                 ",
"                 ##&&========--------======**##                 ",
"                 ##&&========--------======**##                 ",
"                 ##==&&==================$$&&##                 ",
"                 ##==&&==================$$&&##                 ",
"                 XX====&&&&&&&&&&&&&&&&&&&&==..                 ",
"                 XX====&&&&&&&&&&&&&&&&&&&&==..                 ",
"               ..XX..========----==--======oo..                 ",
"               ..XX..========----==--======oo..                 ",
"               ..XX..##XXXXXXXX##**$$--##@@oo                   ",
"               ..XX..##XXXXXXXX##**$$--##@@oo                   ",
"               ..XXXX..########@@##XX--..%%oo                   ",
"               ..XXXX..########@@##XX--..%%oo                   ",
"               ..XXXX........@@@@####XX%%%%@@                   ",
"               ..XXXX........@@@@####XX%%%%@@                   ",
"               ..####XXXXXX..oo@@@@##XX%%oo                     ",
"               ..####XXXXXX..oo@@@@##XX%%oo                     ",
"                 ....XX..XX........oooooo                       ",
"                 ....XX..XX........oooooo                       ",
"                     ......  ..======XX                         ",
"                     ......  ..======XX                         ",
"                         ....OOooOO##--&&&&                     ",
"                         ....OOooOO##--&&&&                     ",
"                       ..----oo%%==oooo----&&                   ",
"                       ..----oo%%==oooo----&&                   ",
"                       ..----oo%%%%oo++oo&&                     ",
"                       ..----oo%%%%oo++oo&&                     ",
"                     ..oo&&&&&&oooo&&oo..                       ",
"                     ..oo&&&&&&oooo&&oo..                       ",
"                     ..oo..........ooXX$$oooo                   ",
"                     ..oo..........ooXX$$oooo                   ",
"                       ....        ..$$$$$$..                   ",
"                       ....        ..$$$$$$..                   ",
"                                     ......                     ",
"                                     ......                     ",
"                                                                ",
"                                                                ",
"                                                                ",
"                                                                "
};
