/* XPM */
static char *_5fb096e9b6e4d85bb318bd12a76d806eI6hucbQhlklUudd[] = {
/* columns rows colors chars-per-pixel */
"64 64 14 1 ",
"  c None",
". c black",
"X c #384050",
"o c #784040",
"O c #C03838",
"+ c #F06848",
"@ c #D8A078",
"# c #386088",
"$ c #C06898",
"% c #F8D0B8",
"& c #A8A0C8",
"* c #E890C0",
"= c #C8C8D8",
"- c #E8E8F8",
/* pixels */
"                                                                ",
"                                                                ",
"                                                                ",
"                                                                ",
"                                                                ",
"                                                                ",
"                                                                ",
"                                                                ",
"                                                                ",
"                                                                ",
"                                                                ",
"                                                                ",
"                             &&&&&&                             ",
"                             &&&&&&                             ",
"                           ##------##                           ",
"                           ##------##                           ",
"                     ####&&----------&&####                     ",
"                     ####&&----------&&####                     ",
"                   ##&&------------------&&##                   ",
"                   ##&&------------------&&##                   ",
"                   ..----------------------..                   ",
"                   ..----------------------..                   ",
"                 ..==----------------------==..                 ",
"                 ..==----------------------==..                 ",
"                 XX==----------------------==XX                 ",
"                 XX==----------------------==XX                 ",
"               ..XX====------------------====XX..               ",
"               ..XX====------------------====XX..               ",
"               ..XX&&======--******--======&&XX..               ",
"               ..XX&&======--******--======&&XX..               ",
"               ..XX&&======$$======$$======&&XX..               ",
"               ..XX&&======$$======$$======&&XX..               ",
"               ..@@XX==--==&&&&&&&&&&==--==..@@..               ",
"               ..@@XX==--==&&&&&&&&&&==--==..@@..               ",
"               ..@@XX&&&&====--==--====&&&&XX@@..               ",
"               ..@@XX&&&&====--==--====&&&&XX@@..               ",
"               ..XXXX**XX&&##@@@@@@##&&XX**XXXX..               ",
"               ..XXXX**XX&&##@@@@@@##&&XX**XXXX..               ",
"               ..XX##..@@--..%%%%%%..--@@..##XX..               ",
"               ..XX##..@@--..%%%%%%..--@@..##XX..               ",
"               ....##..@@%%%%%%%%%%%%%%@@..##....               ",
"               ....##..@@%%%%%%%%%%%%%%@@..##....               ",
"                 ..##..&&@@%%%%@@%%%%@@oo..##..                 ",
"                 ..##..&&@@%%%%@@%%%%@@oo..##..                 ",
"                 ....OO==..oo@@@@@@oo..OO....                   ",
"                 ....OO==..oo@@@@@@oo..OO....                   ",
"               ..%%%%..##&&--======--..OOOO....                 ",
"               ..%%%%..##&&--======--..OOOO....                 ",
"               ..@@@@##==##--&&OO&&--&&..OO==%%oo               ",
"               ..@@@@##==##--&&OO&&--&&..OO==%%oo               ",
"                 ....----##&&OOOOOO&&..OO..%%%%..               ",
"                 ....----##&&OOOOOO&&..OO..%%%%..               ",
"                   ..&&&&##**OOOOOO**++oo......                 ",
"                   ..&&&&##**OOOOOO**++oo......                 ",
"                     ......++++++++++......                     ",
"                     ......++++++++++......                     ",
"                     ..$$$$..........$$$$..                     ",
"                     ..$$$$..........$$$$..                     ",
"                       ....          ....                       ",
"                       ....          ....                       ",
"                                                                ",
"                                                                ",
"                                                                ",
"                                                                "
};
