/* XPM */
static char * Tree_xpm[] = {
"64 64 12 1",
" 	c None",
".	c #108239",
"+	c #0E7030",
"@	c #42AA52",
"#	c #109631",
"$	c #4ABE52",
"%	c #54D85D",
"&	c #0C6329",
"*	c #312F27",
"=	c #474337",
"-	c #5A5748",
";	c #796857",
"                              ....                              ",
"                         ++++.@@@@.++++                         ",
"                        +#@@#@@@@@@#@@#+                        ",
"                     +++@@@@@@@@@@@@@@@@+++                     ",
"                    +@@.@@$$@#$$$$#@$$@@.@@+                    ",
"                   +@@@@@$$$$$$$$$$$$$$@@@@@+                   ",
"                   +@@@##$$$$%%$$%%$$$$##@@@+                   ",
"                  +@@@#$$$$%%%%%%%%%%$$$$#@@@+                  ",
"               &+++#@@@$$$$%%%%%%%%%%$$$$@@@#+++&               ",
"              &#@@@@#$$$$$$$%%%%%%%%$$$$$$$#@@@@#&              ",
"             &@@@@@@$$$$$$$%%%%%%%%%%$$$$$$$@@@@@@&             ",
"             &@@@@@@$$$$$$$%%%%%%%%%%$$$$$$$@@@@@@&             ",
"          &&&##@@@@@$$$$$$$$%%%$$%%%$$$$$$$$@@@@@##&&&          ",
"         &.##.##@@@@#$$$$$$$$$$$$$$$$$$$$$$#@@@@##.##.&         ",
"        &###.#@@@@@@@#@$$$$$$$$$$$$$$$$$$@#@@@@@@@#.###&        ",
"        &.#.@@@@@@@@@#$$$$$$$$$$$$$$$$$$$$#@@@@@@@@@.#.&        ",
"       &.##.@@@@@@@@@@$$$$$$$$$$$$$$$$$$$$@@@@@@@@@@.##.&       ",
"       &###.#@@@@@@@@@@$#@$$$$$$$$$$$$@#$@@@@@@@@@@#.###&       ",
"       &####.##@@@@@@@@@#$$$$$$$$$$$$$$#@@@@@@@@@##.####&       ",
"        &####.@@@@@@@@@@@$$$$$$$$$$$$$$@@@@@@@@@@@.####&        ",
"      &&++.##.@@@@@@@@@@@@$$@#$$$$#@$$@@@@@@@@@@@@.##.++&&      ",
"     &+..#####.@@#@@@@@@@@@##@@@@@@##@@@@@@@@@#@@.#####..+&     ",
"     &..#######..##@@@@@@@@@@@@@@@@@@@@@@@@@@##..#######..&     ",
"    &...###########@@@@@@@@@@@@@@@@@@@@@@@@@@###########...&    ",
"    &..############@@@##@@@@@@@@@@@@@@@@##@@@############..&    ",
"    &..#.#########@@@@##@@@@@@@@@@@@@@@@##@@@@#########.#..&    ",
"    &..+##########@@@@@@@@@@@@@@@@@@@@@@@@@@@@##########+..&    ",
"    &+.+##########@@@@@@@@@@@@@@@@@@@@@@@@@@@@##########+.+&    ",
"     &..+###..#####@@@@@@@@@@@@@@@@@@@@@@@@@@#####..###+..&     ",
"     &.+.###..#######@@@@@@@@@@@@@@@@@@@@@@#######..###.+.&     ",
"     &.+############.@@@@@@@@@@@@@@@@@@@@@@.############+.&     ",
"    &+.+############.#@.@@@@@@@@@@@@@@@@.@#.############+.+&    ",
"    &...+#.###.######..#@@@@@@@@@@@@@@@@#..######.###.#+...&    ",
"    &....+###.+##########@@@.@@@@@@.@@@##########+.###+....&    ",
"    &.....++++.+#.###########.@@@@.###########.#+.++++.....&    ",
"    &...........+++##########################+++...........&    ",
"     &..+.........+.########################.+.........+..&     ",
"      &+...........##########################...........+&      ",
"      &............##########################............&      ",
"      &.+..........+.######################.+..........+.&      ",
"      &+.....+.....+########################+.....+.....+&      ",
"       &....+.......+##.################.##+.......+....&       ",
"       &+...&........+++####.######.####+++........&...+&       ",
"        &+++&....+.....+.##.+######+.##.+.....+....&+++&        ",
"         &&&&+..++......+++++######+++++......++..+&&&&         ",
"             &+++&+..........+####+..........+&+++&             ",
"              &&**&....+................+....&**&&              ",
"               *=-*+...+................+...+*-=*               ",
"               *--*+++++&+..+......+..+&+++++*--*               ",
"               *---*++&*++++++....++++++*&++*---*               ",
"                *=-=****++++&++++++&++++****=-=*                ",
"                 ***==-;*++**++++++**++*;-==***                 ",
"                    *=;;-**-=*++++*=-**-;;=*                    ",
"                    *-;--=--=-****-=--=--;-*                    ",
"                    *-;-==---;----;---==-;-*                    ",
"                    *--==----;;;;;;----==--*                    ",
"                     **=*-----;;;;-----*=**                     ",
"                       **---=-====-=---**                       ",
"                         =--=******=--=                         ",
"                          =**      **=                          ",
"                                                                ",
"                                                                ",
"                                                                ",
"                                                                "};
