/* XPM */
static char * exit_xpm[] = {
"64 64 14 1",
" 	c None",
".	c None",
"+	c #606078",
"@	c #F8B880",
"#	c #C84050",
"$	c #E89070",
"%	c #D86860",
"&	c #404868",
"*	c #B8C8E0",
"=	c #D8E0E8",
"-	c #808088",
";	c #98B0D8",
">	c #F8F8F8",
",	c #60A8E8",
"                ................                ................",
"                ...........++++++++++           ................",
"                ........+++@#@@@@@@#@+++        ................",
"                ......++$$$@#@@@@@@#@$$$++      ................",
"                .....+$#$$$@#@@@@@@#@$$$#$+     ................",
"                ...++$$#$$$@#@@@@@@#@$$$#$$++   ................",
"                ..++$$$#$$$@#@@@@@@#@$$$#$$$++  ................",
"                .+%#$$$#$$$@#@@@@@@#@$$$#$$$#%+ ................",
"                +%%#$$$#$$$@#@@@@@@#@$$$#$$$#%%+................",
"       #++++++++#%%#$$$#$$$@#@@@@@@#@$$$#$$$#%%#++++++++#.......",
"      #@@@@#@@@##%%#$$$#$$$@#@@@@@@#@$$$#$$$#%%#@@@#@@@#$#......",
"     #@@@@@#@@@##%%#$$$#$$$@#@@@@@@#@$$$#$$$#%%#@@@#@@@#$$#.....",
"    #@@$@@@#@@@##%%#$$$#$$$@#@@@@@@#@$$$#$$$#%%#@@@#@@@#$$$#....",
"   ##@$$@@@#@@@##%%#$$$#$$$@#@@@@@@#@$$$#$$$#%%#@@@#@@@#$$$##...",
"  #@#$$$@@@#@@@##%%#$$$#$$$@#@@@@@@#@$$$#$$$#%%#@@@#@@@#$$$#$#..",
" #@@#$$$@@@#@@@##%%#$$$#$$$@#@@@@@@#@$$$#$$$#%%#@@@#@@@#$$$#$$#.",
"#@@$#$$$@@@#@@@##%%#$$$#$$$@#@@@@@@#@$$$#$$$#%%#@@@#@@@#$$$#$$$#",
"&$$$#$$$@@@#@@@##%%#$$$#$$$++++++++++$$$#$$$#%%#@@@#@@@#$$$#$$$&",
"&$$$#$$$@@@#@@@##%%#$$$#+++##########+++#$$$#%%#@@@#@@@#$$$#$$$&",
"&$$$#$$$@@@#@@@##%%#$$++################++$$#%%#@@@#@@@#$$$#$$$&",
"&$$$#$$$@@@#@@@##%%#$+####################+$#%%#@@@#@@@#$$$#$$$&",
"&$$$#$$$@@@#@@@##%%++######################++%%#@@@#@@@#$$$#$$$&",
"&$$$#$$$@@@#@@@##%++########################++%#@@@#@@@#$$$#$$$&",
"&$$$#$$$@@@#@@@##+############################+#@@@#@@@#$$$#$$$&",
"&$$$#$$$@@@#@@@#++++++++++++++++++++++++++++++++@@@#@@@#$$$#$$$&",
"&$$$#$$%################################################%$$#$$$&",
"&$$$#$%%#################+####*==*####+#################%%$#$$$&",
"&$$$#%%%################+###*======*###+################%%%#$$$&",
"&$$$#%%%###############+###==========###+###############%%%#$$$&",
"&$$%++%%###############+##*==*####*==*##+###############%%++%$$&",
"&$%%%++%##############+###==*#$==$#*==###+##############%++%%%$&",
"&%%%%%++##############+##*==#$====$#==*##+##############++%%%%%&",
"&#%%%%%++++++++++++++++##%%%#======#%%%##++++++++++++++++%%%%%#&",
"&+#%%%%%+++++++++++++++######******######+++++++++++++++%%%%%#+&",
"&&+#%%%%##############+##***#$****$#***##+##############%%%%#+&&",
"&-&+#%%%##############+###***#$**$#***###+##############%%%#+&-&",
"&;-&+#%%###############+##****####****##+###############%%#+&-;&",
"&=;-&+#%###############+###**********###+###############%#+&-;=&",
"&>=;-&+#################+###********###+#################+&-;=>&",
"&->=;-&+++++++++++++++++++###%****%###+++++++++++++++++++&-;=>-&",
"&;->=;-&&&&&&&&&&&&&&&&&&&&&&&&&&&&&&&&&&&&&&&&&&&&&&&&&&-;=>-;&",
"&;>->=;++++++++++++++++++++++++++++++++++++++++++++++++++;=>->;&",
"&;>>->=;++++++++++++++++++++++++++++++++++++++++++++++++;=>->>;&",
"&;>>>->;;;;;;;;;;;;;;;;;;;;;;;;;;;;;;;;;;;;;;;;;;;;;;;;;;>->>>;&",
"&;>>>>-;************************************************;->>>>;&",
"&;>>>>>---------------------------------&==>>>>>>>>>>==&->>>>>;&",
"&;>>>>>;********&,,,,,,,,,,,,,,&********&--------------&;>>>>>;&",
"&;>>>>>;********&,,,,,,,,,,,,,,&********>++++++++++++++>;>>>>>;&",
"&;>>>>>;********&,,,,,,,,,,,,,,&********>>>>>>>>>>>>>>>>;>>>>>;&",
"&;>>>>>;********&,,,,,,,,,,,,,,&********>@%%%@>>>>@%%%@>;>>>>>;&",
"&;>>>>>;********&,,,,,,,,,,,,,,&********>%%>%%>>>>%%@>>>;>>>>>;&",
"&;>>>>>;********&,,,,,,,,,,,,,,&********>%%>%%>>>>%%>>>>;>>>>>;&",
"&=;>>>>;********&,,,,,,,,,,,,,,&********=####==##=##@===;>>>>;=&",
"&==;>>>;********&,,,,,,,,,,,,,,&********=##====##=@###@=;>>>;==&",
"&===;>>;********&,,,,,,,,,,,,,,&********================;>>;===&",
"&*===;>;********&,,,,,,,,,,,,,,&********==##=#=##=#=##==;>;===*&",
"&**===;;********&,,,,,,,,,,,,,,&********================;;===**&",
".&**===;&&&&&&&&&;;;;;;;;;;;;;;&&&&&&&&&&&&&&&&&&&&&&&&&;===**& ",
"..&**==;********&;;;;;;;;;;;;;;&************************;==**&  ",
"...&**=;********&**************&************************;=**&   ",
"....&**;********&**************&************************;**&    ",
".....&*;;;;;;;;;&==============&;;;;;;;;;;;;;;;;;;;;;;;;;*&     ",
"......&;;;;;;;;;&&&&&&&&&&&&&&&&;;;;;;;;;;;;;;;;;;;;;;;;;&      ",
".......&&&&&&&&&&              &&&&&&&&&&&&&&&&&&&&&&&&&&       "};
