/* XPM */
static char * exit_xpm[] = {
"86 86 74 1",
" 	c None",
".	c #000000",
"+	c #E7E7E7",
"@	c #BDCECE",
"#	c #F78439",
"$	c #A5B5B5",
"%	c #E76310",
"&	c #D64A08",
"*	c #FF9C42",
"=	c #BD3108",
"-	c #C65A10",
";	c #B54208",
">	c #FFFFFF",
",	c #F7F7F7",
"'	c #A53108",
")	c #E7E7DE",
"!	c #DEE7CE",
"~	c #94A594",
"{	c #637B73",
"]	c #8CA594",
"^	c #849484",
"/	c #5A7373",
"(	c #8C9C8C",
"_	c #7B8C84",
":	c #849C8C",
"<	c #84948C",
"[	c #6B7B73",
"}	c #5A736B",
"|	c #5A6B6B",
"1	c #526B6B",
"2	c #526B63",
"3	c #B5C6B5",
"4	c #5A6B84",
"5	c #7B8C7B",
"6	c #73847B",
"7	c #738473",
"8	c #ADC6AD",
"9	c #E7E7D6",
"0	c #9C3108",
"a	c #DEDECE",
"b	c #F7C6AD",
"c	c #005ABD",
"d	c #2173D6",
"e	c #394A52",
"f	c #ADBDAD",
"g	c #18A5EF",
"h	c #29C6F7",
"i	c #31424A",
"j	c #314252",
"k	c #31394A",
"l	c #313942",
"m	c #293942",
"n	c #B55210",
"o	c #A5AD9C",
"p	c #9CA59C",
"q	c #AD4208",
"r	c #942908",
"s	c #8CA58C",
"t	c #9C4208",
"u	c #ADB59C",
"v	c #8C3108",
"w	c #7B2108",
"x	c #4A5A63",
"y	c #1873D6",
"z	c #42525A",
"A	c #318CD6",
"B	c #4A9CE7",
"C	c #424A52",
"D	c #6BC6EF",
"E	c #6B7BA5",
"F	c #8CD6EF",
"G	c #73CEF7",
"H	c #52ADF7",
"I	c #3994E7",
"                                                                                      ",
"                                                                                      ",
"                                                                                      ",
"      ..........................................................................      ",
"    ..++++++++++++++++++++++++++++++++++++++++++++++++++++++++++++++++++++++++++..    ",
"   .++++++++++++++++++++++++++++++++++++++++++++++++++++++++++++++++++++++++++++++.   ",
"  .++++@@@@@@############################################################@@@@@@++++.  ",
" .++++@@$$$%##############################################################%$$$@@++++. ",
".++++@@$$&%################################################################%&$$@@++++.",
".++@@@$$%%#####****####***####***####****####****####***####***####****#####%%$$@@@++.",
".++@@$$&%%#####****####***####***####****####****####***####***####****#####%%&$$@@++.",
".++@$=&&%%#####****####***####***####****####****####***####***####****#####%%&&=$@++.",
".++@$=&&%%##################################################################%%&&=$@++.",
".++@$=&&%%##################################################################%%&&=$@++.",
".++@$=&&%%##################################################################%%&&=$@++.",
".++@$=&&%%##################################################################%%&&=$@++.",
".++@$=&&%%#####****####***####***####****####****####***####***####****#####%%&&=$@++.",
".++@$=&&%%#####****####***####***####****####****####***####***####****#####%%&&=$@++.",
".++@$=&&%%#####****####***####***####****####****####***####***####****#####%%&&=$@++.",
".++@$=&&%%##################################################################%%&&=$@++.",
".++@$=&&%%##################################################################%%&&=$@++.",
".++@$=&&%%##################################################################%%&&=$@++.",
".++@$=&&%%##################################################################%%&&=$@++.",
".++@$=&&%%#####****####***####***####****####****####***####***####****#####%%&&=$@++.",
".++@$=&&%%#####****####***####***####****####****####***####***####****#####%%&&=$@++.",
".++@$=&&%%#####****####***####***####****####****####***####***####****#####%%&&=$@++.",
".++@$=&&%%##################################################################%%&&=$@++.",
".++@$=&&%%##################################################################%%&&=$@++.",
".++@$=&&%%##################################################################%%&&=$@++.",
".++@$=&&%%##################################################################%%&&=$@++.",
".++@$=&&%%#####****####***####***####****####****####***####***####****#####%%&&=$@++.",
".++@$=&&%%#####****####***####***####****####****####***####***####****#####%%&&=$@++.",
".++@$=&&%%#####****####***####***####****####****####***####***####****#####%%&&=$@++.",
".++@$=&%%%%################################################################%%%%&=$@++.",
".++@$=&&%%%%##############################################################%%%%&&=$@++.",
".++@$=&&%%%%%############################################################%%%%%&&=$@++.",
".++@$=&&&%%%%%----------------------------------------------------------%%%%%&&&=$@++.",
".++@$=&&&&&%%%----------------------------------------------------------%%%&&&&&=$@++.",
".++@$==&&&&&%------------------------------------------------------------%&&&&&==$@++.",
".++@$===&&&&&;;;;;;;;;;;;;;;;;;;;;;;;;;>>>>,>>>;;;;;;;;;;;;;;;;;;;;;;;;;;&&&&&===$@++.",
".++@$====&&&;;;;;;;;;;;;;;;;;;;;;;;;;+>>>>>,>>>>+;;;;;;;;;;;;;;;;;;;;;;;;;&&&====$@++.",
".++@$$=====&;;;;;;;;;;;;;;;;;;;;;;;+++>>>>>,>>>>+++;;;;;;;;;;;;;;;;;;;;;;;&=====$$@++.",
".+++@@$$===''''''''''''''''''''''')+++>>>>>,>>>>+++)'''''''''''''''''''''''===$$@@+++.",
".++++@@$$==''''''''''''''''''''''))+++>>>>>,>>>>+++))''''''''''''''''''''''==$$@@++++.",
".+++++@@$$='''''''''''''''''''''!))+++>>>>>,>>>>+++))!'''''''''''''''''''''=$$@@+++++.",
".~~+++++@@@@@@@@@@@@@@@@@@@@@@@@!))+++>>>>>,>>>>+++))!@@@@@@@@@@@@@@@@@@@@@@@@+++++~~.",
".{]]++++++++++++++++++++++++++++!))+++>>>>>,>>>>+++))!++++++++++++++++++++++++++++]]{.",
".^/](+++++++++++++++++++++++++++!))+++>>>>>,>>>>+++))!+++++++++++++++++++++++++++(]/^.",
".^__/((((::::<<<<<^^^^__________!))+++[[[[[[[[[[+++))!__________^^^^<<<<<::::((((/__^.",
" ..__}}}}||||1111122222222222223!))+[[[[[[[[[[[[[[+))!3222222222222211111||||}}}}__.. ",
"  .4_55556666666667777[[[[[[[[[8!9[[[[[00000000[[[[[9!8[[[[[[[[[77776666666665555_4.  ",
"  .44}5556666666667777[[[[[[[[[8a[[[0000%bbbb%0000[[[a8[[[[[[[[[7777666666666555}44.  ",
"  .4444ccccdddddddddddccdeeeeeef[[[00%>>>>>>>>>>%00[[[feeeeeedccdddddddddddcccc4444.  ",
"  .4444ccccgggggggggggccgeeeeee[[[00%>>>b%%%%b>>>%00[[[eeeeeegccgggggggggggcccc4444.  ",
"  .4444ccccgggggggggggccg222222[[000>>>b%bbbb%b>>>000[[222222gccgggggggggggcccc4444.  ",
"  .444444cchhhhhhhhhhhddh222222[[000%%%%b>>>>b%%%%000[[222222hddhhhhhhhhhhhcc444444.  ",
"  .i444444ccccccccccccccc[[[[[[[[000%bbb%bbbb%bbb%000[[[[[[[[ccccccccccccccc444444i.  ",
"  .ii44444444444444444444[[[[[[[[000%b>>b%%%%b>>b%000[[[[[[[[44444444444444444444ii.  ",
"  .jiiiiiiiiikkkkkllllmmm&&&&&&[[00000b>>>>>>>>b00000[[&&&&&&mmmllllkkkkkiiiiiiiiij.  ",
"  .{/iiiiiiiikkkkkllllmmm&&&&&&[[0000000%bbbb%0000000[[&&&&&&mmmllllkkkkkiiiiiiii/{.  ",
"  .^_/iiiiiiikkkkkllllmmm&&&&&&&&&&&&&&&&&&&&&&&&&&&&&&&&&&&&mmmllllkkkkkiiiiiii/_^.  ",
"  .^__}}}||||1111122llmmm#%%&&&&&&&&&&&&&&&&&&&&&&&&&&&&&&%%#mmmll2211111||||}}}__^.  ",
"  .^__5((::::<<<<<77llmeen#%%&&&&&&&&&&&&&&&&&&&&&&&&&&&&%%#neemll77<<<<<::::((5__^.  ",
"  .^__5ooooooppppp77llmeeqn#%&&&&&&&&&&&&&&&&&&&&&&&&&&&&%#nqeemll77pppppoooooo5__^.  ",
"  .^__5ooooooppppp77llmeerqnn#%&&&&&&&&&&&&&&&&&&&&&&&&%#nnqreemll77pppppoooooo5__^.  ",
"  .^__5ooooooppppp77llmee}rqnn##########################nnqr}eemll77pppppoooooo5__^.  ",
"  .^__5ooooooppppp77llmees5rqqnttttttttttttttttttttttttnqqr5seemll77pppppoooooo5__^.  ",
"  .^__5ooooooppppp77llmeeussrqqvvvvvvvvvvvvvvvvvvvvvvvvqqrssueemll77pppppoooooo5__^.  ",
"  .^__5ooooooppppp77llmeeuuu5rrwwwwwwwwwwwwwwwwwwwwwwwwrr5uuueemll77pppppoooooo5__^.  ",
"  .x__5ooooooppppp77llmeeuuu55iiiyyyyyyyyyyyyyyyyyyyyiii55uuueemll77pppppoooooo5__x.  ",
"  .xz_5ooooooppppp77llmeeuuu55izzAAAAAAAAAAAAAAAAAAAAzzi55uuueemll77pppppoooooo5_zx.  ",
"  .jzz5ooooooppppp77llmeeuuu55izzBBBBBBBBBBBBBBBBBBBBzzi55uuueemll77pppppoooooo5zzj.  ",
"  .{iizzzzzzzzzzzzCCllmeeuuu55izzDDDEDDDDDDDDDDDDDDDDzzi55uuueemllCCzzzzzzzzzzzzii{.  ",
"  .{//iiiiiiikkkkkllllmeeuuu55izzDDDEDDDDDDDDDDDDDDDDzzi55uuueemllllkkkkkiiiiiii//{.  ",
"  .{//}}}||||1111122llmeeuuu55izzFFFEFFFFFFFFFFFFFFFFzzi55uuueemll2211111||||}}}//{.  ",
"  .//}}5566666666622llmeezuu55izzFFFFFFFFFFFFFFFFFFFFzzi55uuzeemll2266666666655}}//.  ",
"   ..}}((::::<<<<<22llmeezzu55izzGGGGGGGGGGGGGGGGGGGGzzi55uzzeemll22<<<<<::::((}}..   ",
"     .}((::::<<<<<22llmeeizzz5izzHHHHHHHHHHHHHHHHHHHHzzi5zzzieemll22<<<<<::::((}.     ",
"      ...................}iizzizzHHHHHHHHHHHHHHHHHHHHzzizzii}...................      ",
"                        .s}}iiizzIIIIIIIIIIIIIIIIIIIIzziii}}s.                        ",
"                        .ss5}iizzIIIIIIIIIIIIIIIIIIIIzzii}5ss.                        ",
"                        .ss5}iizz....................zzii}5ss.                        ",
"                         .s5}iizz.                  .zzii}5s.                         ",
"                          ..}iizz.                  .zzii}..                          ",
"                            ..izz.                  .zzi..                            ",
"                              ....                  ....                              "};
