/* XPM */
static char * Grass_xpm[] = {
"64 64 4 1",
" 	c #50F890",
".	c #48F088",
"+	c #68F8A0",
"@	c #48E898",
"                ..                              ..              ",
"                ..                              ..              ",
"              ..++..    ..                    ..++..    ..      ",
"              ..++..    ..                    ..++..    ..      ",
"            ..@@  @@  ..  ..                ..@@  @@  ..  ..    ",
"            ..@@  @@  ..  ..                ..@@  @@  ..  ..    ",
"++++++++++    ........@@  @@..  ++++++++++    ........@@  @@..  ",
"++++++++++    ........@@  @@..  ++++++++++    ........@@  @@..  ",
"++++++++++++++++++    ......  ++++++++++++++++++++    ......  ++",
"++++++++++++++++++    ......  ++++++++++++++++++++    ......  ++",
"++++++++++++++++++++++++++++++++++++++++++++++++++++++++++++++++",
"++++++++++++++++++++++++++++++++++++++++++++++++++++++++++++++++",
"++++++++++++++++++  ..    ++++++++++++++++++++++++  ..    ++++++",
"++++++++++++++++++  ..    ++++++++++++++++++++++++  ..    ++++++",
"  ..    ++++++++  ..++..    ++    ..    ++++++++  ..++..    ++  ",
"  ..    ++++++++  ..++..    ++    ..    ++++++++  ..++..    ++  ",
"..  ..    ++    ..@@  @@..      ..  ..    ++    ..@@  @@..      ",
"..  ..    ++    ..@@  @@..      ..  ..    ++    ..@@  @@..      ",
"@@  @@  ..        ......      ..@@  @@  ..        ......      ..",
"@@  @@  ..        ......      ..@@  @@  ..        ......      ..",
"  ......++..                      ......++..                    ",
"  ......++..                      ......++..                    ",
"    ..@@  @@..                      ..@@  @@..                  ",
"    ..@@  @@..                      ..@@  @@..                  ",
"      ......              ..          ......              ..    ",
"      ......              ..          ......              ..    ",
"                        ..  ..                          ..  ..  ",
"                        ..  ..                          ..  ..  ",
"                      ..@@  @@..                      ..@@  @@..",
"                      ..@@  @@..                      ..@@  @@..",
"                        ......                          ......  ",
"                        ......                          ......  ",
"                ..                              ..              ",
"                ..                              ..              ",
"              ..++..    ..                    ..++..    ..      ",
"              ..++..    ..                    ..++..    ..      ",
"            ..@@  @@  ..  ..                ..@@  @@  ..  ..    ",
"            ..@@  @@  ..  ..                ..@@  @@  ..  ..    ",
"++++++++++    ........@@  @@..  ++++++++++    ........@@  @@..  ",
"++++++++++    ........@@  @@..  ++++++++++    ........@@  @@..  ",
"++++++++++++++++++    ......  ++++++++++++++++++++    ......  ++",
"++++++++++++++++++    ......  ++++++++++++++++++++    ......  ++",
"++++++++++++++++++++++++++++++++++++++++++++++++++++++++++++++++",
"++++++++++++++++++++++++++++++++++++++++++++++++++++++++++++++++",
"++++++++++++++++++  ..    ++++++++++++++++++++++++  ..    ++++++",
"++++++++++++++++++  ..    ++++++++++++++++++++++++  ..    ++++++",
"  ..    ++++++++  ..++..    ++    ..    ++++++++  ..++..    ++  ",
"  ..    ++++++++  ..++..    ++    ..    ++++++++  ..++..    ++  ",
"..  ..    ++    ..@@  @@..      ..  ..    ++    ..@@  @@..      ",
"..  ..    ++    ..@@  @@..      ..  ..    ++    ..@@  @@..      ",
"@@  @@  ..        ......      ..@@  @@  ..        ......      ..",
"@@  @@  ..        ......      ..@@  @@  ..        ......      ..",
"  ......++..                      ......++..                    ",
"  ......++..                      ......++..                    ",
"    ..@@  @@..                      ..@@  @@..                  ",
"    ..@@  @@..                      ..@@  @@..                  ",
"      ......              ..          ......              ..    ",
"      ......              ..          ......              ..    ",
"                        ..  ..                          ..  ..  ",
"                        ..  ..                          ..  ..  ",
"                      ..@@  @@..                      ..@@  @@..",
"                      ..@@  @@..                      ..@@  @@..",
"                        ......                          ......  ",
"                        ......                          ......  "};
