/* XPM */
static char * pokeball_xpm[] = {
"64 64 8 1",
" 	c None",
".	c #503030",
"+	c #D06050",
"@	c #983830",
"#	c #F8F8F8",
"$	c #000000",
"%	c #404038",
"&	c #888890",
"                                                                ",
"                                                                ",
"                                                                ",
"                                                                ",
"                                                                ",
"                                                                ",
"                                                                ",
"                                                                ",
"                                                                ",
"                                                                ",
"                                                                ",
"                                                                ",
"                                                                ",
"                                                                ",
"                                                                ",
"                                                                ",
"                                                                ",
"                                                                ",
"                                                                ",
"                                                                ",
"                                                                ",
"                                                                ",
"                                                                ",
"                                                                ",
"                            ........                            ",
"                            ........                            ",
"                          ..++++++@@..                          ",
"                          ..++++++@@..                          ",
"                        ..++##++++++@@..                        ",
"                        ..++##++++++@@..                        ",
"                      ..@@@@++++++@@@@@@..                      ",
"                      ..@@@@++++++@@@@@@..                      ",
"                      $$@@@@@@%%%%@@@@@@$$                      ",
"                      $$@@@@@@%%%%@@@@@@$$                      ",
"                      $$%%@@%%##&&$$@@%%$$                      ",
"                      $$%%@@%%##&&$$@@%%$$                      ",
"                      $$##%%$$&&&&$$%%&&$$                      ",
"                      $$##%%$$&&&&$$%%&&$$                      ",
"                        $$####$$$$&&&&$$                        ",
"                        $$####$$$$&&&&$$                        ",
"                          $$&&&&&&&&$$                          ",
"                          $$&&&&&&&&$$                          ",
"                            $$$$$$$$                            ",
"                            $$$$$$$$                            ",
"                                                                ",
"                                                                ",
"                                                                ",
"                                                                ",
"                                                                ",
"                                                                ",
"                                                                ",
"                                                                ",
"                                                                ",
"                                                                ",
"                                                                ",
"                                                                ",
"                                                                ",
"                                                                ",
"                                                                ",
"                                                                ",
"                                                                ",
"                                                                ",
"                                                                ",
"                                                                "};
