/* XPM */
static char * vilain_xpm[] = {
"64 64 14 1",
" 	c None",
".	c #484850",
"+	c #303038",
"@	c #606068",
"#	c #000000",
"$	c #8C2E44",
"%	c #F65A7B",
"&	c #9088B8",
"*	c #D89870",
"=	c #E8E8F8",
"-	c #F8D0B8",
";	c #784040",
">	c #C0B8D0",
",	c #D85810",
"                                                                ",
"                                                                ",
"                                                                ",
"                                                                ",
"                                                                ",
"                                                                ",
"                                                                ",
"                                                                ",
"                                                                ",
"                                                                ",
"                         ..++++++++++..                         ",
"                         ..++++++++++..                         ",
"                     ++++..@@@@@@@@@@..++++                     ",
"                     ++++..@@@@@@@@@@..++++                     ",
"                   ##++@@@@@@@@@@@@@@@@@@++##                   ",
"                   ##++@@@@@@@@@@@@@@@@@@++##                   ",
"                 ##++@@@@@@@@@@@@@@@@@@@@@@++##                 ",
"                 ##++@@@@@@@@@@@@@@@@@@@@@@++##                 ",
"                 ##++@@..................@@++##                 ",
"                 ##++@@..................@@++##                 ",
"               ##++++..@@@@@@@@@@@@@@@@@@..++++##               ",
"               ##++++..@@@@@@@@@@@@@@@@@@..++++##               ",
"               ##++++++@@@@@@@@@@@@@@@@@@++++++##               ",
"               ##++++++@@@@@@@@@@@@@@@@@@++++++##               ",
"               ##++++++..@@@@@@@@@@@@@@..++++++##               ",
"               ##++++++..@@@@@@@@@@@@@@..++++++##               ",
"               ##++++++++..............++++++++##               ",
"               ##++++++++..............++++++++##               ",
"               ##++++++++++++++++++++++++++++++##               ",
"               ##++++++++++++++++++++++++++++++##               ",
"                 ##++++++++++++++++++++++++++##                 ",
"                 ##++++++++++++++++++++++++++##                 ",
"                 $$$$++@@@@@@@@@@@@@@@@@@++$$$$                 ",
"                 $$$$++@@@@@@@@@@@@@@@@@@++$$$$                 ",
"                 $$%%##++&&@@######@@&&++##%%$$                 ",
"                 $$%%##++&&@@######@@&&++##%%$$                 ",
"                 $$%%$$**==##******##==**$$%%$$                 ",
"                 $$%%$$**==##******##==**$$%%$$                 ",
"                   $$++**--------------**++$$                   ",
"                   $$++**--------------**++$$                   ",
"                     ##;;**----**----**;;##                     ",
"                     ##;;**----**----**;;##                     ",
"                   ##@@@@++++******++++@@@@##                   ",
"                   ##@@@@++++******++++@@@@##                   ",
"                 ##@@@@++@@..++++++@@@@++@@@@##                 ",
"                 ##@@@@++@@..++++++@@@@++@@@@##                 ",
"               ++>>++@@##..@@,,@@,,@@..##@@++>>++               ",
"               ++>>++@@##..@@,,@@,,@@..##@@++>>++               ",
"               ++&&&&##++&&..,,,,....&&++##&&&&++               ",
"               ++&&&&##++&&..,,,,....&&++##&&&&++               ",
"                 ++++##++++&&&&&&,,&&++++##++++                 ",
"                 ++++##++++&&&&&&,,&&++++##++++                 ",
"                     ##..++++++++++++++..##                     ",
"                     ##..++++++++++++++..##                     ",
"                     ##**@@..........@@**##                     ",
"                     ##**@@..........@@**##                     ",
"                     ##&&&&##++..++##&&&&##                     ",
"                     ##&&&&##++..++##&&&&##                     ",
"                       ####          ####                       ",
"                       ####          ####                       ",
"                                                                ",
"                                                                ",
"                                                                ",
"                                                                "};
